<svg width="339" height="339" viewBox="0 0 339 339" fill="none" xmlns="http://www.w3.org/2000/svg">
<path d="M0 17C0 7.61115 7.61116 0 17 0H322C331.389 0 339 7.61116 339 17V322C339 331.389 331.389 339 322 339H17C7.61115 339 0 331.389 0 322V17Z" fill="#FF5C00"/>
<path d="M273.103 109.673C273.184 144.087 265.751 178.667 247.176 208.593L247.175 208.596C231.385 234.735 207.837 256.319 180.81 272.668L180.809 272.669C176.856 275.084 172.811 277.405 168.673 279.684C168.564 279.744 168.516 279.874 168.559 279.99C168.602 280.106 168.724 280.173 168.846 280.147C187.656 276.11 205.462 267.728 221.043 256.6C228.776 251.129 236.136 244.551 242.542 237.743L242.543 237.742C256.729 222.507 267.276 204.404 273.406 185.106L273.407 185.103C280.812 160.614 281.752 134.022 273.599 109.617C273.579 109.5 273.476 109.41 273.353 109.411C273.215 109.411 273.103 109.523 273.103 109.661V109.661L273.103 109.673Z" fill="white" stroke="white" stroke-width="0.5" stroke-linejoin="round"/>
<path d="M172.067 280.209C172.029 280.254 172.008 280.311 172.008 280.37V280.379C172.008 280.472 172.06 280.558 172.144 280.601C172.227 280.644 172.327 280.636 172.403 280.582C233.48 236.917 242.738 151 194.012 94.8103C187.524 87.3207 180.285 80.3776 172.026 74.7861C171.923 74.7162 171.784 74.7331 171.701 74.8257C171.617 74.9183 171.615 75.0583 171.695 75.1538C177.988 82.6553 183.573 90.4941 188.533 98.6212L188.534 98.6227C225.851 158.836 217.619 226.51 172.067 280.209Z" fill="white" stroke="white" stroke-width="0.5" stroke-linejoin="round"/>
<path d="M67.4776 245.236C67.5155 245.354 67.6331 245.426 67.7547 245.406C67.8763 245.387 67.9658 245.282 67.9655 245.159C67.8852 210.738 75.071 176.151 93.0287 146.228L93.0302 146.225C108.294 120.084 131.056 98.4993 157.182 82.1507L157.183 82.1501C161.003 79.735 164.913 77.4137 168.914 75.1347C169.021 75.0735 169.068 74.9429 169.023 74.8275C168.979 74.7121 168.856 74.6466 168.736 74.6734C150.55 78.7112 133.336 87.0948 118.274 98.2232C110.798 103.695 103.683 110.274 97.4901 117.083L97.4892 117.084C83.7761 132.319 73.5809 150.423 67.6552 169.721L67.6542 169.724C60.4946 194.223 59.5878 220.825 67.4776 245.236Z" fill="white" stroke="white" stroke-width="0.5" stroke-linejoin="round"/>
<path d="M169.193 74.6114C169.275 74.5152 169.272 74.3732 169.186 74.2804C169.101 74.1876 168.96 74.173 168.857 74.2463C107.781 117.911 98.5226 203.828 147.248 260.01C153.737 267.499 160.975 274.442 169.234 280.034C169.337 280.104 169.476 280.087 169.56 279.994C169.643 279.902 169.646 279.762 169.566 279.666C163.272 272.165 157.688 264.326 152.727 256.199L152.726 256.197C115.41 195.985 123.642 128.31 169.193 74.6114Z" fill="white" stroke="white" stroke-width="0.5" stroke-linejoin="round"/>
</svg>
