<svg width="425" height="425" viewBox="0 0 425 425" fill="none" xmlns="http://www.w3.org/2000/svg">
<g filter="url(#filter0_d_392_507)">
<rect x="56" y="43" width="339" height="339" rx="17" fill="#FF5C00"/>
</g>
<path d="M329.103 152.673C329.184 187.087 321.751 221.667 303.176 251.593L303.175 251.596C287.385 277.735 263.837 299.319 236.81 315.668L236.809 315.669C232.856 318.084 228.811 320.405 224.673 322.684C224.564 322.744 224.516 322.874 224.559 322.99C224.602 323.106 224.724 323.173 224.846 323.147C243.656 319.11 261.462 310.728 277.043 299.6C284.776 294.129 292.136 287.551 298.542 280.743L298.543 280.742C312.729 265.507 323.276 247.404 329.406 228.106L329.407 228.103C336.812 203.614 337.752 177.022 329.599 152.617C329.579 152.5 329.476 152.41 329.353 152.411C329.215 152.411 329.103 152.523 329.103 152.661V152.661L329.103 152.673Z" fill="white" stroke="white" stroke-width="0.5" stroke-linejoin="round"/>
<path d="M228.008 323.37C228.008 323.311 228.029 323.254 228.067 323.209C273.619 269.51 281.851 201.836 244.534 141.623L244.533 141.621C239.573 133.494 233.988 125.655 227.695 118.154C227.615 118.058 227.617 117.918 227.701 117.826C227.784 117.733 227.923 117.716 228.026 117.786C236.285 123.378 243.524 130.321 250.012 137.81L228.008 323.37ZM228.008 323.37V323.379C228.008 323.472 228.06 323.558 228.144 323.601M228.008 323.37L228.144 323.601M228.144 323.601C228.227 323.644 228.327 323.636 228.403 323.582M228.144 323.601L228.403 323.582M228.403 323.582C289.48 279.917 298.738 194 250.013 137.81L228.403 323.582Z" fill="white" stroke="white" stroke-width="0.5" stroke-linejoin="round"/>
<path d="M123.478 288.236C123.515 288.354 123.633 288.426 123.755 288.406C123.876 288.387 123.966 288.282 123.966 288.159C123.885 253.738 131.071 219.151 149.029 189.228L149.03 189.225C164.294 163.084 187.056 141.499 213.182 125.151L213.183 125.15C217.003 122.735 220.913 120.414 224.914 118.135C225.021 118.073 225.068 117.943 225.023 117.828C224.979 117.712 224.856 117.647 224.736 117.673C206.55 121.711 189.336 130.095 174.274 141.223C166.798 146.695 159.683 153.274 153.49 160.083L153.489 160.084C139.776 175.319 129.581 193.423 123.655 212.721L123.654 212.724C116.495 237.223 115.588 263.825 123.478 288.236Z" fill="white" stroke="white" stroke-width="0.5" stroke-linejoin="round"/>
<path d="M225.193 117.611C225.275 117.515 225.272 117.373 225.186 117.28C225.101 117.188 224.96 117.173 224.857 117.246C163.781 160.911 154.523 246.828 203.248 303.01C209.737 310.499 216.975 317.442 225.234 323.034C225.337 323.104 225.476 323.087 225.56 322.994C225.643 322.902 225.646 322.762 225.566 322.666C219.272 315.165 213.688 307.326 208.727 299.199L208.726 299.197C171.41 238.985 179.642 171.31 225.193 117.611Z" fill="white" stroke="white" stroke-width="0.5" stroke-linejoin="round"/>
<defs>
<filter id="filter0_d_392_507" x="0.300003" y="0.300003" width="424.4" height="424.4" filterUnits="userSpaceOnUse" color-interpolation-filters="sRGB">
<feFlood flood-opacity="0" result="BackgroundImageFix"/>
<feColorMatrix in="SourceAlpha" type="matrix" values="0 0 0 0 0 0 0 0 0 0 0 0 0 0 0 0 0 0 127 0" result="hardAlpha"/>
<feMorphology radius="45" operator="erode" in="SourceAlpha" result="effect1_dropShadow_392_507"/>
<feOffset dx="-13"/>
<feGaussianBlur stdDeviation="43.85"/>
<feComposite in2="hardAlpha" operator="out"/>
<feColorMatrix type="matrix" values="0 0 0 0 0 0 0 0 0 0 0 0 0 0 0 0 0 0 0.25 0"/>
<feBlend mode="normal" in2="BackgroundImageFix" result="effect1_dropShadow_392_507"/>
<feBlend mode="normal" in="SourceGraphic" in2="effect1_dropShadow_392_507" result="shape"/>
</filter>
</defs>
</svg>
